<?xml version="1.0" standalone="no"?>
<!DOCTYPE svg PUBLIC "-//W3C//DTD SVG 20010904//EN"
 "http://www.w3.org/TR/2001/REC-SVG-20010904/DTD/svg10.dtd">
<svg version="1.0" xmlns="http://www.w3.org/2000/svg"
 width="142.000000pt" height="100.000000pt" viewBox="0 0 142.000000 100.000000"
 preserveAspectRatio="xMidYMid meet">

<g transform="translate(0.000000,100.000000) scale(0.100000,-0.100000)"
fill="#000000" stroke="none">
<path d="M1190 915 c-9 -11 -9 -15 -1 -15 7 0 9 -6 6 -12 -4 -7 1 -4 9 6 9 11
16 23 16 28 0 13 -17 9 -30 -7z"/>
<path d="M96 889 c-3 -17 -6 -146 -6 -285 l0 -254 26 0 c14 0 23 4 19 10 -4 6
-11 8 -16 5 -5 -3 -6 1 -3 9 3 9 11 13 16 10 6 -4 5 3 -2 15 -6 12 -16 18 -22
15 -7 -5 -8 -2 -4 5 5 7 15 10 23 6 13 -4 14 -3 4 9 -14 17 -9 274 5 298 6 10
4 10 -9 -1 -10 -8 -17 -9 -17 -3 0 6 4 13 9 16 4 3 7 37 6 75 -1 46 2 68 8 64
6 -4 8 0 4 10 -4 12 1 17 21 20 19 3 15 4 -14 6 -39 1 -42 -1 -48 -30z"/>
<path d="M1334 770 c0 -85 2 -120 3 -77 2 42 2 112 0 155 -1 42 -3 7 -3 -78z"/>
<path d="M1334 500 c0 -58 1 -81 3 -52 2 28 2 76 0 105 -2 28 -3 5 -3 -53z"/>
<path d="M306 479 c2 -4 -1 -9 -8 -11 -7 -3 -4 -7 7 -12 11 -4 16 -4 12 0 -4
4 -2 12 3 19 7 8 5 12 -5 12 -8 0 -12 -4 -9 -8z"/>
<path d="M272 437 c-7 -8 -9 -17 -5 -20 3 -4 2 -7 -3 -7 -5 0 -18 -13 -27 -30
l-18 -30 36 0 c20 0 43 7 51 15 9 8 12 15 7 15 -5 0 -13 -4 -19 -10 -6 -6 -10
-3 -10 9 0 13 6 17 21 13 20 -4 20 -4 0 12 -11 10 -14 14 -7 11 10 -5 13 -2
10 10 -4 24 -22 29 -36 12z"/>
<path d="M956 374 c-9 -22 3 -32 14 -14 12 19 12 30 1 30 -5 0 -12 -7 -15 -16z"/>
<path d="M120 154 c-12 -36 -20 -68 -17 -70 3 -3 8 4 12 15 10 33 63 29 76 -5
5 -15 12 -24 15 -21 10 9 -39 147 -52 147 -7 0 -22 -30 -34 -66z m48 9 c10
-31 10 -33 -14 -33 -27 0 -29 6 -14 46 12 31 13 30 28 -13z"/>
<path d="M357 145 c13 -41 28 -75 33 -75 5 0 20 34 33 75 14 41 23 75 19 75
-4 0 -16 -30 -28 -68 l-20 -67 -23 68 c-12 37 -26 67 -31 67 -5 0 3 -34 17
-75z"/>
<path d="M560 145 l0 -75 43 2 c36 1 38 2 10 5 -29 4 -33 8 -33 33 0 24 5 29
28 33 l27 4 -27 2 c-24 1 -28 5 -28 30 0 26 4 30 33 34 28 3 26 4 -10 5 l-43
2 0 -75z"/>
<path d="M782 143 c0 -43 3 -63 5 -45 5 40 23 41 46 2 10 -16 23 -30 28 -30 6
0 2 13 -8 30 -13 23 -15 32 -5 42 15 15 15 51 0 66 -7 7 -25 12 -40 12 l-28 0
2 -77z m53 32 c0 -23 -5 -31 -22 -33 -20 -3 -23 1 -23 33 0 32 3 36 23 33 17
-2 22 -10 22 -33z"/>
<path d="M1014 193 c-5 -20 -3 -30 11 -37 10 -6 27 -19 37 -29 16 -15 17 -21
7 -33 -7 -9 -23 -14 -36 -11 -12 2 -20 0 -17 -4 8 -13 48 -11 62 3 20 20 14
45 -17 70 -41 32 -43 50 -6 59 l30 7 -32 1 c-28 1 -34 -3 -39 -26z"/>
<path d="M1240 205 c-7 -8 -13 -33 -14 -54 -2 -94 99 -112 119 -21 10 47 -13
84 -56 88 -23 2 -40 -2 -49 -13z m80 -14 c23 -45 3 -111 -35 -111 -23 0 -45
30 -45 61 0 43 17 69 45 69 14 0 29 -8 35 -19z"/>
</g>
</svg>
